# xmcd CD database file
#
# Track frame offsets:
#	150
#	23617
#	49730
#	79162
#	101988
#	140950
#	157841
#	180940
#
# Disc length: 2814 seconds
#
# Revision: 0
# Processed by: cddbd v1.5.1PL0 Copyright (c) Steve Scherf et al.
# Submitted via: CDex 1.51
#
DISCID=5f0afc08
DTITLE=Pliem, Derschmidt, Winkler - Hollotrio
DYEAR=2003
DGENRE=Jazz
TTITLE0=Groove I
TTITLE1=Watch Your Step
TTITLE2=Joe's Dilemma
TTITLE3=Sektor II
TTITLE4=Quasi Free Lick
TTITLE5=Augies
TTITLE6=Lost Love
TTITLE7=Waltz for Ralf
EXTD=YEAR: 2003
EXTT0=
EXTT1=
EXTT2=
EXTT3=
EXTT4=
EXTT5=
EXTT6=
EXTT7=
PLAYORDER=
